<?xml version="1.0" encoding="UTF-8"?>
<svg version="1.1" xmlns="http://www.w3.org/2000/svg" width="88" height="100">
<path d="M0 0 C3.55688493 1.51167609 5.16100161 4.04642312 7.5 7.0625 C8.49 7.7225 9.48 8.3825 10.5 9.0625 C10.90843923 11.77453652 10.63336867 14.3062142 10.5 17.0625 C11.16 16.7325 11.82 16.4025 12.5 16.0625 C16.36061033 14.77562989 19.44150283 14.92492382 23.5 15.0625 C24.625 20.6875 24.625 20.6875 23.5 24.0625 C24.304375 24.206875 25.10875 24.35125 25.9375 24.5 C28.5 25.0625 28.5 25.0625 29.5 26.0625 C29.26675822 32.24340714 27.43903193 37.0700126 24.95703125 42.69921875 C23.91235919 45.11064674 22.93628158 47.50099139 22.01171875 49.95703125 C21.63406372 50.94884399 21.63406372 50.94884399 21.2487793 51.96069336 C20.53536937 53.84412347 19.82997314 55.73058325 19.125 57.6171875 C14.87529058 66.62738873 9.13693632 69.11786202 0.25 73 C-0.90846436 73.51780029 -2.06692871 74.03560059 -3.26049805 74.5690918 C-6.66660178 76.08357249 -10.08230495 77.57440532 -13.5 79.0625 C-15.27223878 79.85133032 -17.04438564 80.64036721 -18.81640625 81.4296875 C-20.31398957 82.08069504 -21.81259886 82.72935056 -23.3125 83.375 C-24.31361816 83.81863892 -24.31361816 83.81863892 -25.33496094 84.27124023 C-29.11161973 85.84386302 -31.57051936 86.34238798 -35.5 85.0625 C-37.25195072 73.27664969 -38.88880343 61.47465326 -40.41516113 49.6574707 C-40.59431531 48.27932456 -40.77628495 46.90154099 -40.96130371 45.52416992 C-43.61837508 25.6826074 -43.61837508 25.6826074 -42.5 19.0625 C-40.2887085 16.29049781 -38.1589832 14.62485815 -34.8828125 13.31640625 C-34.19993164 13.03893555 -33.51705078 12.76146484 -32.81347656 12.47558594 C-31.73018066 12.0545459 -31.73018066 12.0545459 -30.625 11.625 C-29.50303223 11.17495605 -29.50303223 11.17495605 -28.35839844 10.71582031 C-22.44985456 8.36893366 -16.47878413 6.23071646 -10.453125 4.203125 C-6.79980669 2.79205497 -3.92198346 0.09804959 0 0 Z " fill="#71C7F5" transform="translate(50.5,7.9375)"/>
<path d="M0 0 C-0.05151367 2.29394531 -0.05151367 2.29394531 -1 5 C-3.44458802 6.3853893 -5.5642632 7.34956824 -8.17578125 8.296875 C-8.89734909 8.57597717 -9.61891693 8.85507935 -10.36235046 9.14263916 C-12.67235223 10.03067321 -14.9918666 10.89018574 -17.3125 11.75 C-18.86461465 12.34326997 -20.41605691 12.93830225 -21.96679688 13.53515625 C-34.05551561 18.15470829 -34.05551561 18.15470829 -38 19 C-37.47703281 29.01426535 -36.92041114 39.01255997 -36 49 C-35.21625 48.34 -34.4325 47.68 -33.625 47 C-31 45 -31 45 -29 45 C-28.89042969 44.31292969 -28.78085937 43.62585937 -28.66796875 42.91796875 C-28.50941406 42.01691406 -28.35085937 41.11585937 -28.1875 40.1875 C-28.03667969 39.29417969 -27.88585937 38.40085938 -27.73046875 37.48046875 C-26.93427746 34.77682454 -26.26428356 33.65024056 -24 32 C-23.01 32 -22.02 32 -21 32 C-21 31.34 -21 30.68 -21 30 C-19.91460937 29.52949219 -18.82921875 29.05898438 -17.7109375 28.57421875 C-16.26558788 27.94539781 -14.82027746 27.31648677 -13.375 26.6875 C-12.66214844 26.37876953 -11.94929688 26.07003906 -11.21484375 25.75195312 C-7.98089378 24.342663 -4.82129364 22.907275 -1.6875 21.28125 C1.41399871 19.80262852 3.60534811 19.75752487 7 20 C6.01 20.495 6.01 20.495 5 21 C5 21.66 5 22.32 5 23 C3.80761719 23.43570313 2.61523438 23.87140625 1.38671875 24.3203125 C-0.18010996 24.9207738 -1.74649349 25.52239766 -3.3125 26.125 C-4.09818359 26.40859375 -4.88386719 26.6921875 -5.69335938 26.984375 C-10.64363007 28.90672744 -10.64363007 28.90672744 -13.79296875 33.10546875 C-14.39044922 34.53826172 -14.39044922 34.53826172 -15 36 C-16.9375 37.35546875 -16.9375 37.35546875 -19 38.1875 C-21.97206797 39.42023274 -24.04395111 40.39378713 -26 43 C-27.13358049 46.33328788 -27.13358049 46.33328788 -28 50.125 C-29.24061202 55.09218549 -30.59059021 59.9570944 -32.2734375 64.79296875 C-33.70436273 69.13959646 -34.83411814 73.57626385 -36 78 C-36.66 78 -37.32 78 -38 78 C-39.57258419 72.17525839 -40.58026947 66.47533019 -41.2890625 60.48828125 C-41.39721283 59.5981987 -41.50536316 58.70811615 -41.61679077 57.7910614 C-41.84284829 55.91644137 -42.06624609 54.04149887 -42.28710938 52.16625977 C-42.62211923 49.33683045 -42.97070224 46.50929824 -43.3203125 43.68164062 C-46.09755673 20.75284754 -46.09755673 20.75284754 -45 15 C-42.6934509 12.11800061 -40.47854678 10.49161609 -37.06640625 9.1484375 C-36.33486328 8.85453125 -35.60332031 8.560625 -34.84960938 8.2578125 C-34.09486328 7.96648438 -33.34011719 7.67515625 -32.5625 7.375 C-31.81162109 7.0759375 -31.06074219 6.776875 -30.28710938 6.46875 C-28.83335451 5.8908281 -27.37736127 5.3184978 -25.91894531 4.75244141 C-24.37902844 4.14862159 -22.85293532 3.50960046 -21.33203125 2.859375 C-14.62591875 0.38811076 -7.10926667 -0.32314849 0 0 Z " fill="#1A7E86" transform="translate(53,12)"/>
<path d="M0 0 C3.35654089 1.63291178 5.04974818 4.20724108 7.3125 7.125 C8.3025 7.785 9.2925 8.445 10.3125 9.125 C10.72093923 11.83703652 10.44586867 14.3687142 10.3125 17.125 C11.3025 17.455 12.2925 17.785 13.3125 18.125 C8.31270375 21.26772907 3.42336921 21.79732532 -2.37109375 22.6015625 C-9.39176976 23.70965506 -15.54255953 25.89385505 -21.80078125 29.20703125 C-25.19901937 30.86041833 -28.88215654 32.125 -32.6875 32.125 C-33.0175 30.805 -33.3475 29.485 -33.6875 28.125 C-34.6775 28.125 -35.6675 28.125 -36.6875 28.125 C-36.546875 25.80078125 -36.546875 25.80078125 -35.6875 23.125 C-33.265625 21.60546875 -33.265625 21.60546875 -29.9375 20.3125 C-29.33711914 20.0738623 -28.73673828 19.83522461 -28.11816406 19.58935547 C-26.7595777 19.05410355 -25.39694572 18.52905006 -24.03125 18.01220703 C-21.3985503 17.0156205 -18.77769806 15.99064734 -16.15625 14.96484375 C-12.43633656 13.52057119 -8.71533669 12.07957638 -4.984375 10.6640625 C-4.20416992 10.36709473 -3.42396484 10.07012695 -2.62011719 9.76416016 C-0.6875 9.125 -0.6875 9.125 1.3125 9.125 C1.6425 7.475 1.9725 5.825 2.3125 4.125 C1.66023438 4.269375 1.00796875 4.41375 0.3359375 4.5625 C-4.41370177 5.57127294 -8.80159188 6.38215306 -13.6875 6.125 C-4.8375 0.225 -4.8375 0.225 0 0 Z " fill="#BFDDF0" transform="translate(50.6875,7.875)"/>
<path d="M0 0 C1.36884358 4.51718381 0.47075246 7.58774263 -1 12 C-2.65 12 -4.3 12 -6 12 C-6 11.34 -6 10.68 -6 10 C-8.64 10.33 -11.28 10.66 -14 11 C-14 10.34 -14 9.68 -14 9 C-19.17529519 9.40857594 -23.00883583 11.37290792 -27.53125 13.72265625 C-35.79816514 18 -35.79816514 18 -40 18 C-40 18.66 -40 19.32 -40 20 C-40.763125 20.33 -41.52625 20.66 -42.3125 21 C-45.45288943 23.33703399 -45.56633396 24.26220188 -46.5 27.9375 C-47.43631071 31.60248762 -47.83561872 32.83160942 -50.5625 35.625 C-53 37 -53 37 -55 37 C-56.5439119 28.68086307 -57.48244596 20.44430279 -58 12 C-57.34 12 -56.68 12 -56 12 C-55.34 11.34 -54.68 10.68 -54 10 C-53.67 11.65 -53.34 13.3 -53 15 C-49.81623835 14.27100785 -46.81352007 13.25412597 -43.75 12.125 C-42.780625 11.76921875 -41.81125 11.4134375 -40.8125 11.046875 C-38.45325601 10.16871196 -36.10096095 9.27497724 -33.75 8.375 C-28.69760582 6.52245547 -23.99466812 5.03447209 -18.625 4.625 C-14.25457195 4.22972238 -10.93708419 2.75592788 -7.01953125 0.85546875 C-4.58947555 -0.17389721 -2.61252513 -0.33710002 0 0 Z " fill="#44D5BF" transform="translate(72,24)"/>
<path d="M0 0 C0.598125 0.20625 1.19625 0.4125 1.8125 0.625 C1.8125 1.285 1.8125 1.945 1.8125 2.625 C2.8025 2.955 3.7925 3.285 4.8125 3.625 C4.8125 4.285 4.8125 4.945 4.8125 5.625 C-0.8125 8.625 -0.8125 8.625 -4.1875 8.625 C-4.1875 9.285 -4.1875 9.945 -4.1875 10.625 C-6.1675 10.955 -8.1475 11.285 -10.1875 11.625 C-10.1875 12.285 -10.1875 12.945 -10.1875 13.625 C-13.55847383 15.12321059 -15.39192119 15.625 -19.1875 15.625 C-19.1875 16.285 -19.1875 16.945 -19.1875 17.625 C-20.5075 17.625 -21.8275 17.625 -23.1875 17.625 C-23.21328125 18.21667969 -23.2390625 18.80835937 -23.265625 19.41796875 C-24.47685735 22.31774111 -26.20488992 22.94459728 -29.0078125 24.15820312 C-29.64460938 24.41537109 -30.28140625 24.67253906 -30.9375 24.9375 C-31.86949219 25.35225586 -31.86949219 25.35225586 -32.8203125 25.77539062 C-36.66013501 27.38341756 -39.19896151 27.92660321 -43.1875 26.625 C-43.1875 25.635 -43.1875 24.645 -43.1875 23.625 C-42.5275 23.625 -41.8675 23.625 -41.1875 23.625 C-41.084375 22.7175 -40.98125 21.81 -40.875 20.875 C-40.10206832 15.36217848 -38.59182909 10.00384538 -37.1875 4.625 C-36.8575 4.625 -36.5275 4.625 -36.1875 4.625 C-35.8575 7.265 -35.5275 9.905 -35.1875 12.625 C-33.74739519 12.36837755 -32.3104313 12.09409179 -30.875 11.8125 C-30.07449219 11.66167969 -29.27398437 11.51085937 -28.44921875 11.35546875 C-26.13643769 10.80710145 -26.13643769 10.80710145 -24.77734375 9.14453125 C-21.86059769 6.35678133 -17.65433445 6.24421845 -13.8046875 5.46875 C-12.94101562 5.1903125 -12.07734375 4.911875 -11.1875 4.625 C-10.8575 3.635 -10.5275 2.645 -10.1875 1.625 C-9.424375 1.66625 -8.66125 1.7075 -7.875 1.75 C-4.51868958 1.59389254 -3.26425478 -0.55958653 0 0 Z " fill="#4BAFEF" transform="translate(58.1875,66.375)"/>
<path d="M0 0 C-0.05151367 2.29394531 -0.05151367 2.29394531 -1 5 C-3.44458802 6.3853893 -5.5642632 7.34956824 -8.17578125 8.296875 C-8.89734909 8.57597717 -9.61891693 8.85507935 -10.36235046 9.14263916 C-12.67235223 10.03067321 -14.9918666 10.89018574 -17.3125 11.75 C-18.86461465 12.34326997 -20.41605691 12.93830225 -21.96679688 13.53515625 C-33.1381773 17.80415897 -33.1381773 17.80415897 -36.41088867 18.54785156 C-36.93529541 18.69706055 -37.45970215 18.84626953 -38 19 C-38.33 19.66 -38.66 20.32 -39 21 C-41.0625 22.125 -41.0625 22.125 -43 23 C-42.835 24.051875 -42.67 25.10375 -42.5 26.1875 C-41.74288605 32.10578512 -41.91830321 38.04521179 -42 44 C-42.33 44 -42.66 44 -43 44 C-46.80042781 17.56666732 -46.80042781 17.56666732 -43.50390625 12.8671875 C-40.09571613 10.32566663 -36.51104666 8.89911878 -32.5625 7.375 C-31.81162109 7.0759375 -31.06074219 6.776875 -30.28710938 6.46875 C-28.83335451 5.8908281 -27.37736127 5.3184978 -25.91894531 4.75244141 C-24.37902844 4.14862159 -22.85293532 3.50960046 -21.33203125 2.859375 C-14.62591875 0.38811076 -7.10926667 -0.32314849 0 0 Z " fill="#3F95BD" transform="translate(53,12)"/>
<path d="M0 0 C0.33 0 0.66 0 1 0 C1.33 1.65 1.66 3.3 2 5 C5.54268312 4.19160251 8.7531829 2.92285245 12.09765625 1.5234375 C14 1 14 1 17 2 C16.030625 2.639375 15.06125 3.27875 14.0625 3.9375 C11.23963731 5.6965259 11.23963731 5.6965259 10 7 C9.57965425 10.49069735 9.22741809 13.98465552 8.890625 17.484375 C7.82360317 21.69630328 6.34481172 23.29611028 3 26 C2.01 26.33 1.02 26.66 0 27 C-1.5439119 18.68086307 -2.48244596 10.44430279 -3 2 C-2.34 2 -1.68 2 -1 2 C-0.67 1.34 -0.34 0.68 0 0 Z " fill="#649FCD" transform="translate(17,34)"/>
<path d="M0 0 C2.01822917 0.06510417 4.03645833 0.13020833 6.0546875 0.1953125 C7.1796875 5.8203125 7.1796875 5.8203125 6.0546875 9.1953125 C6.8590625 9.3396875 7.6634375 9.4840625 8.4921875 9.6328125 C11.0546875 10.1953125 11.0546875 10.1953125 12.0546875 11.1953125 C11.82156294 17.37311342 9.99565996 22.19754984 7.515625 27.82421875 C6.45967392 30.26081175 5.4707274 32.67981622 4.53125 35.16015625 C4.27496826 35.83038818 4.01868652 36.50062012 3.75463867 37.19116211 C3.25758747 38.49769215 2.76779596 39.80701425 2.28637695 41.11938477 C0.80311833 44.96454637 -0.81770849 47.50490045 -3.9453125 50.1953125 C-3.62075422 48.19386976 -3.28413906 46.19438921 -2.9453125 44.1953125 C-2.81125 43.30199219 -2.6771875 42.40867188 -2.5390625 41.48828125 C-2.384375 40.52535156 -2.2296875 39.56242187 -2.0703125 38.5703125 C-1.92851563 37.64992187 -1.78671875 36.72953125 -1.640625 35.78125 C-0.9453125 33.1953125 -0.9453125 33.1953125 0.5625 31.23828125 C3.02574643 27.86582606 2.94777125 24.03380464 3.4296875 19.97265625 C4.10365783 16.9777006 4.75841035 16.11485668 7.0546875 14.1953125 C7.3846875 13.5353125 7.7146875 12.8753125 8.0546875 12.1953125 C6.4046875 11.8653125 4.7546875 11.5353125 3.0546875 11.1953125 C3.3846875 8.2253125 3.7146875 5.2553125 4.0546875 2.1953125 C1.4146875 2.1953125 -1.2253125 2.1953125 -3.9453125 2.1953125 C-1.9453125 0.1953125 -1.9453125 0.1953125 0 0 Z " fill="#8FDFF8" transform="translate(67.9453125,22.8046875)"/>
<path d="M0 0 C6.67982063 4.49865471 6.67982063 4.49865471 7.46484375 8.1796875 C7.4375 10.375 7.4375 10.375 7 14 C7.99 14.33 8.98 14.66 10 15 C8.329375 14.87818359 8.329375 14.87818359 6.625 14.75390625 C-3.74570388 14.23920274 -11.19714489 15.55541945 -20.44921875 20.2734375 C-24.00545291 22.00265147 -27.19640771 22.99633939 -31 24 C-31.66 24.33 -32.32 24.66 -33 25 C-31.9690368 21.86122432 -31.1369236 21.07190283 -28.15844727 19.5078125 C-26.97307373 19.05148438 -25.7877002 18.59515625 -24.56640625 18.125 C-23.61579567 17.74819092 -23.61579567 17.74819092 -22.64598083 17.36376953 C-20.6230366 16.56265156 -18.59385186 15.77953098 -16.5625 15 C-14.53498334 14.21990809 -12.50967035 13.43575266 -10.48973083 12.63623047 C-8.65468842 11.9099411 -6.8129558 11.20062346 -4.97094727 10.4921875 C-1.93908837 8.96940653 -0.59297927 7.9657109 1 5 C0.77802187 2.3015411 0.77802187 2.3015411 0 0 Z " fill="#E4F7FA" transform="translate(54,11)"/>
<path d="M0 0 C-3.27675788 2.91267367 -5.81131756 3.50106806 -10.125 4 C-18.46437298 5.13930963 -25.6745875 7.13201087 -33.10546875 11.08203125 C-35.98417717 12.47686935 -38.90212386 13.22553096 -42 14 C-42 12.35 -42 10.7 -42 9 C-41.46375 8.86464844 -40.9275 8.72929688 -40.375 8.58984375 C-36.17978539 7.43753974 -32.22398251 6.16925053 -28.3359375 4.20703125 C-18.34426146 -0.77631717 -11.03058897 -1.74553203 0 0 Z " fill="#C2E4F0" transform="translate(62,26)"/>
<path d="M0 0 C0.33 0 0.66 0 1 0 C1.50666472 4.18672147 2.00413918 8.37448633 2.5 12.5625 C2.64308594 13.74392578 2.78617188 14.92535156 2.93359375 16.14257812 C3.59866722 21.79570264 4.20065423 27.30643621 4 33 C2.515 33.495 2.515 33.495 1 34 C-2.01905167 27.26581504 -2.52692741 21.33128556 -2.6875 14 C-2.72166016 12.93910156 -2.75582031 11.87820312 -2.79101562 10.78515625 C-2.87283825 8.19020999 -2.94219995 5.59557364 -3 3 C-2.34 3 -1.68 3 -1 3 C-0.67 2.01 -0.34 1.02 0 0 Z " fill="#12499F" transform="translate(13,32)"/>
<path d="M0 0 C0 1.65 0 3.3 0 5 C-1.26691507 5.67408308 -2.53870749 6.33900497 -3.8125 7 C-4.52019531 7.37125 -5.22789063 7.7425 -5.95703125 8.125 C-8 9 -8 9 -11 9 C-11 8.34 -11 7.68 -11 7 C-19.91 10.465 -19.91 10.465 -29 14 C-27 9 -27 9 -24.61743164 7.49853516 C-23.64153076 7.09940918 -22.66562988 6.7002832 -21.66015625 6.2890625 C-20.59732422 5.84949219 -19.53449219 5.40992188 -18.43945312 4.95703125 C-17.32505859 4.51746094 -16.21066406 4.07789063 -15.0625 3.625 C-13.95197266 3.16222656 -12.84144531 2.69945312 -11.69726562 2.22265625 C-3.41510175 -1.13836725 -3.41510175 -1.13836725 0 0 Z " fill="#7EC3E2" transform="translate(37,15)"/>
<path d="M0 0 C-0.66 0.33 -1.32 0.66 -2 1 C-2 1.66 -2 2.32 -2 3 C-3.78857422 3.65355469 -3.78857422 3.65355469 -5.61328125 4.3203125 C-7.18010996 4.9207738 -8.74649349 5.52239766 -10.3125 6.125 C-11.49102539 6.55039062 -11.49102539 6.55039062 -12.69335938 6.984375 C-16.77902857 8.58387103 -18.58267143 9.29054144 -20.875 13.1875 C-21.24625 14.115625 -21.6175 15.04375 -22 16 C-24.6875 16.875 -24.6875 16.875 -27 17 C-27 15.68 -27 14.36 -27 13 C-29.39489543 13.74324341 -30.70777616 14.47057354 -31.93359375 16.69140625 C-32.67219923 18.44073501 -33.34049685 20.21934149 -34 22 C-34.33 22 -34.66 22 -35 22 C-34.39169139 15.55192878 -34.39169139 15.55192878 -32.625 13.0625 C-31 12 -31 12 -28 12 C-28 11.34 -28 10.68 -28 10 C-26.91460937 9.52949219 -25.82921875 9.05898438 -24.7109375 8.57421875 C-23.26558788 7.94539781 -21.82027746 7.31648677 -20.375 6.6875 C-19.66214844 6.37876953 -18.94929688 6.07003906 -18.21484375 5.75195312 C-14.98089378 4.342663 -11.82129364 2.907275 -8.6875 1.28125 C-5.58600129 -0.19737148 -3.39465189 -0.24247513 0 0 Z " fill="#2C9A9F" transform="translate(60,32)"/>
<path d="M0 0 C0.33 0 0.66 0 1 0 C1.33 1.65 1.66 3.3 2 5 C5.54268312 4.19160251 8.7531829 2.92285245 12.09765625 1.5234375 C14 1 14 1 17 2 C16.071875 2.598125 15.14375 3.19625 14.1875 3.8125 C9.58913906 6.9682379 8.01072432 8.84751894 6 14 C5.04175747 15.36365283 4.05278825 16.70794169 3 18 C3 16.35 3 14.7 3 13 C2.34 13 1.68 13 1 13 C0.67 12.34 0.34 11.68 0 11 C-0.66 11 -1.32 11 -2 11 C-2.33 8.03 -2.66 5.06 -3 2 C-2.34 2 -1.68 2 -1 2 C-0.67 1.34 -0.34 0.68 0 0 Z " fill="#78BFD6" transform="translate(17,34)"/>
<path d="M0 0 C0 0.99 0 1.98 0 3 C-11.23046875 7.4921875 -11.23046875 7.4921875 -13.19677734 8.27246094 C-14.72130114 8.88755448 -16.23163867 9.537634 -17.73828125 10.1953125 C-20 11 -20 11 -24 11 C-23.5546875 8.7421875 -23.5546875 8.7421875 -22 6 C-19.19565882 4.29840358 -16.20357101 3.23309285 -13.125 2.125 C-12.30902344 1.8053125 -11.49304687 1.485625 -10.65234375 1.15625 C-4.00691222 -1.33714193 -4.00691222 -1.33714193 0 0 Z " fill="#B1E7F3" transform="translate(65,34)"/>
<path d="M0 0 C0.93423645 3.01031744 1.04449911 3.86650268 0 7 C-0.928125 7.5775 -1.85625 8.155 -2.8125 8.75 C-8.05385166 12.77889441 -8.68583792 20.85435969 -10 27 C-11.4606285 24.35261084 -12 23.10551666 -12 20 C-13.32 19.67 -14.64 19.34 -16 19 C-14.37660195 17.29115995 -12.70680947 15.62553283 -11 14 C-10.34 14 -9.68 14 -9 14 C-8.773125 12.948125 -8.54625 11.89625 -8.3125 10.8125 C-7.18840766 6.83369833 -5.2038144 4.64314688 -2 2 C-1.34 2 -0.68 2 0 2 C0 1.34 0 0.68 0 0 Z " fill="#26829B" transform="translate(33,43)"/>
<path d="M0 0 C1.36884358 4.51718381 0.47075246 7.58774263 -1 12 C-2.65 12 -4.3 12 -6 12 C-5.34 11.34 -4.68 10.68 -4 10 C-6.06029645 6.90955532 -6.82606287 6.48778303 -10 5 C-10.66 4.34 -11.32 3.68 -12 3 C-4.71428571 -0.42857143 -4.71428571 -0.42857143 0 0 Z " fill="#38F9C8" transform="translate(72,24)"/>
<path d="M0 0 C-2.66077078 2.11593378 -5.16914272 3.65776181 -8.30078125 4.97265625 C-9.11353516 5.31490234 -9.92628906 5.65714844 -10.76367188 6.00976562 C-11.60478516 6.35716797 -12.44589844 6.70457031 -13.3125 7.0625 C-14.14201172 7.41376953 -14.97152344 7.76503906 -15.82617188 8.12695312 C-20.50254004 10.07943833 -25.11052025 11.67800612 -30 13 C-30.99 13.495 -30.99 13.495 -32 14 C-30.96715794 10.98858585 -30.17090035 10.09514347 -27.34204102 8.52026367 C-26.24045654 8.07400635 -25.13887207 7.62774902 -24.00390625 7.16796875 C-22.20663086 6.43610352 -22.20663086 6.43610352 -20.37304688 5.68945312 C-19.747771 5.44332275 -19.12249512 5.19719238 -18.47827148 4.94360352 C-16.5658611 4.18882654 -14.66475816 3.40975336 -12.76367188 2.62695312 C-3.39763759 -1.13254586 -3.39763759 -1.13254586 0 0 Z " fill="#E4F8FE" transform="translate(53,22)"/>
<path d="M0 0 C0.8971875 0.309375 0.8971875 0.309375 1.8125 0.625 C1.8125 1.285 1.8125 1.945 1.8125 2.625 C2.8025 2.955 3.7925 3.285 4.8125 3.625 C4.8125 4.285 4.8125 4.945 4.8125 5.625 C3.1728125 5.8415625 3.1728125 5.8415625 1.5 6.0625 C-2.11872987 6.50788104 -2.11872987 6.50788104 -5.1875 7.625 C-5.1875 8.285 -5.1875 8.945 -5.1875 9.625 C-5.8475 9.625 -6.5075 9.625 -7.1875 9.625 C-7.1875 8.965 -7.1875 8.305 -7.1875 7.625 C-8.1775 7.625 -9.1675 7.625 -10.1875 7.625 C-11.1875 4.625 -11.1875 4.625 -10.1875 1.625 C-9.0428125 1.686875 -9.0428125 1.686875 -7.875 1.75 C-4.51868958 1.59389254 -3.26425478 -0.55958653 0 0 Z " fill="#60BCF3" transform="translate(58.1875,66.375)"/>
<path d="M0 0 C-3.7457872 4.23557353 -8.94106057 5.96573398 -14 8.25 C-15.010625 8.72179687 -16.02125 9.19359375 -17.0625 9.6796875 C-18.031875 10.12054688 -19.00125 10.56140625 -20 11.015625 C-20.886875 11.42071289 -21.77375 11.82580078 -22.6875 12.24316406 C-25 13 -25 13 -28 12 C-27.67 11.34 -27.34 10.68 -27 10 C-25.68 10 -24.36 10 -23 10 C-23 9.34 -23 8.68 -23 8 C-20.03 7.34 -17.06 6.68 -14 6 C-14 5.34 -14 4.68 -14 4 C-12.02 3.67 -10.04 3.34 -8 3 C-8 2.34 -8 1.68 -8 1 C-3.375 -1.125 -3.375 -1.125 0 0 Z " fill="#80BFE1" transform="translate(62,74)"/>
<path d="M0 0 C0.66 0.33 1.32 0.66 2 1 C1.64085214 7.22522954 -0.09538137 12.05173795 -2.58984375 17.74609375 C-4.90706955 23.09304414 -6.93494926 28.55178104 -9 34 C-10.27063455 30.18809636 -9.48509337 28.66082968 -8.25 24.875 C-7.87488281 23.71226563 -7.49976562 22.54953125 -7.11328125 21.3515625 C-6.74589844 20.24554688 -6.37851563 19.13953125 -6 18 C-5.72542969 17.16210938 -5.45085937 16.32421875 -5.16796875 15.4609375 C-4.45527493 13.30380007 -3.72898427 11.15167938 -3 9 C-2.43672491 7.31275856 -1.87421249 5.6252623 -1.3125 3.9375 C-0.875 2.625 -0.4375 1.3125 0 0 Z " fill="#CBF5FB" transform="translate(78,33)"/>
<path d="M0 0 C1.11841368 2.08770553 1.9708176 3.85408801 2.4375 6.1875 C2.623125 6.785625 2.80875 7.38375 3 8 C3.99 8.33 4.98 8.66 6 9 C6 12.3 6 15.6 6 19 C5.34 17.68 4.68 16.36 4 15 C4 19.95 4 24.9 4 30 C3.67 30 3.34 30 3 30 C2.49384729 26.12577792 1.99617279 22.25051183 1.5 18.375 C1.35691406 17.28058594 1.21382812 16.18617187 1.06640625 15.05859375 C0.93105469 13.99511719 0.79570312 12.93164062 0.65625 11.8359375 C0.53056641 10.86188965 0.40488281 9.8878418 0.27539062 8.88427734 C-0.00906019 5.90510895 -0.04655007 2.99084203 0 0 Z " fill="#508CAE" transform="translate(11,58)"/>
<path d="M0 0 C0.74958984 0.06123047 1.49917969 0.12246094 2.27148438 0.18554688 C4.11972745 0.33858611 5.9663335 0.51116879 7.8125 0.6875 C4.50227104 3.63441115 1.78920091 4.28158624 -2.5625 4.875 C-3.66335937 5.03355469 -4.76421875 5.19210938 -5.8984375 5.35546875 C-9.02264581 5.67085795 -12.05018514 5.7491089 -15.1875 5.6875 C-14.1875 3.6875 -14.1875 3.6875 -11.1875 2.6875 C-10.79949219 2.16542969 -10.41148438 1.64335937 -10.01171875 1.10546875 C-7.00274766 -1.23341028 -3.59708796 -0.35499645 0 0 Z " fill="#D1F2F4" transform="translate(54.1875,25.3125)"/>
<path d="M0 0 C0.33 0 0.66 0 1 0 C1.33923576 2.35344806 1.67150534 4.7075484 2 7.0625 C2.09539063 7.71927734 2.19078125 8.37605469 2.2890625 9.05273438 C2.88887674 13.40138763 3.09127093 17.61329071 3 22 C2.01 22.33 1.02 22.66 0 23 C-2.76085051 17.47829898 -2.78618113 8.51222076 -1.0625 2.625 C-0.711875 1.75875 -0.36125 0.8925 0 0 Z " fill="#0A3D9C" transform="translate(14,43)"/>
<path d="M0 0 C0.99 0.33 1.98 0.66 3 1 C3 1.66 3 2.32 3 3 C4.65 2.67 6.3 2.34 8 2 C7.01 2.495 7.01 2.495 6 3 C5.67 3.66 5.34 4.32 5 5 C2.9375 6.125 2.9375 6.125 1 7 C1.165 8.051875 1.33 9.10375 1.5 10.1875 C2.25711395 16.10578512 2.08169679 22.04521179 2 28 C1.67 28 1.34 28 1 28 C-1.68371602 8.90248513 -1.68371602 8.90248513 -1 1 C-0.67 0.67 -0.34 0.34 0 0 Z " fill="#5999CB" transform="translate(9,28)"/>
<path d="M0 0 C0.33 0.99 0.66 1.98 1 3 C0.36191406 3.27714844 -0.27617187 3.55429687 -0.93359375 3.83984375 C-1.75988281 4.20207031 -2.58617187 4.56429688 -3.4375 4.9375 C-4.26121094 5.29714844 -5.08492187 5.65679688 -5.93359375 6.02734375 C-7.94410117 6.83122323 -7.94410117 6.83122323 -9 8 C-8.67 8.66 -8.34 9.32 -8 10 C-8.9375 12.625 -8.9375 12.625 -10 15 C-10.66 13.68 -11.32 12.36 -12 11 C-12.99 11 -13.98 11 -15 11 C-14.94140625 8.70703125 -14.94140625 8.70703125 -14 6 C-11.58662314 4.624763 -9.50702199 3.63945389 -6.9375 2.6875 C-6.27427734 2.42388672 -5.61105469 2.16027344 -4.92773438 1.88867188 C-3.29203495 1.24145268 -1.6468272 0.61835705 0 0 Z " fill="#9ED7F7" transform="translate(29,25)"/>
<path d="M0 0 C0.721875 0.0825 1.44375 0.165 2.1875 0.25 C4 1 4 1 5.25 3.5625 C5.4975 4.366875 5.745 5.17125 6 6 C4.01432292 5.70703125 2.02864583 5.4140625 0.04296875 5.12109375 C-2.2025342 4.86095201 -2.2025342 4.86095201 -5 6 C-5 5.34 -5 4.68 -5 4 C-7.64 3.67 -10.28 3.34 -13 3 C-9.3271396 -1.44609417 -5.29745003 -1.35832052 0 0 Z " fill="#37E7BD" transform="translate(63,29)"/>
<path d="M0 0 C0 1.65 0 3.3 0 5 C-1.26691507 5.67408308 -2.53870749 6.33900497 -3.8125 7 C-4.52019531 7.37125 -5.22789063 7.7425 -5.95703125 8.125 C-8 9 -8 9 -11 9 C-9.125 5.125 -9.125 5.125 -8 4 C-8.66 3.34 -9.32 2.68 -10 2 C-3.375 -1.125 -3.375 -1.125 0 0 Z " fill="#BEF3FB" transform="translate(37,15)"/>
<path d="M0 0 C2.125 0.9375 2.125 0.9375 4 2 C3.01 2.33 2.02 2.66 1 3 C1 3.99 1 4.98 1 6 C2.32 6 3.64 6 5 6 C3.52307692 10.67692308 3.52307692 10.67692308 0.875 12.3125 C-0.053125 12.6528125 -0.053125 12.6528125 -1 13 C-0.67 11.68 -0.34 10.36 0 9 C-1.98 8.01 -3.96 7.02 -6 6 C-2.25 1.125 -2.25 1.125 0 0 Z " fill="#66C5F0" transform="translate(33,49)"/>
<path d="M0 0 C-0.99 0.495 -0.99 0.495 -2 1 C-2 1.66 -2 2.32 -2 3 C-6.95 4.98 -11.9 6.96 -17 9 C-17.66 8.34 -18.32 7.68 -19 7 C-6.72413793 -0.67241379 -6.72413793 -0.67241379 0 0 Z " fill="#27B49B" transform="translate(60,32)"/>
<path d="M0 0 C-0.33 1.65 -0.66 3.3 -1 5 C-1.99 5.33 -2.98 5.66 -4 6 C-4.66 5.67 -5.32 5.34 -6 5 C-6 4.34 -6 3.68 -6 3 C-10.95 4.485 -10.95 4.485 -16 6 C-16 4.68 -16 3.36 -16 2 C-10.54538831 0.61470179 -5.63281599 -0.2396943 0 0 Z " fill="#4ABBE0" transform="translate(53,12)"/>
<path d="M0 0 C0.99 0.66 1.98 1.32 3 2 C5.50896686 2.45601261 5.50896686 2.45601261 8.1875 2.625 C9.08855469 2.69976562 9.98960938 2.77453125 10.91796875 2.8515625 C11.60503906 2.90054688 12.29210938 2.94953125 13 3 C8.90164329 5.7322378 5.10538623 8.22397726 0.0625 7.6875 C-0.618125 7.460625 -1.29875 7.23375 -2 7 C-2 6.01 -2 5.02 -2 4 C-1.34 4 -0.68 4 0 4 C0 2.68 0 1.36 0 0 Z " fill="#61A5D8" transform="translate(17,86)"/>
<path d="M0 0 C2 1 2 1 4 4 C4.66 4 5.32 4 6 4 C5.68872484 5.58357459 5.37592711 7.16684993 5.0625 8.75 C4.88847656 9.63171875 4.71445312 10.5134375 4.53515625 11.421875 C4.07631512 13.63235053 3.56663926 15.81512068 3 18 C2.34 18 1.68 18 1 18 C0.67 12.06 0.34 6.12 0 0 Z " fill="#0E4C8B" transform="translate(14,72)"/>
<path d="M0 0 C0 0.99 0 1.98 0 3 C-0.66 3 -1.32 3 -2 3 C-2 3.66 -2 4.32 -2 5 C-4.97 5.66 -7.94 6.32 -11 7 C-11.33 5.68 -11.66 4.36 -12 3 C-4.71428571 -0.42857143 -4.71428571 -0.42857143 0 0 Z " fill="#2695CE" transform="translate(23,24)"/>
<path d="M0 0 C1 1 1 1 1.0625 4.0625 C1.041875 5.031875 1.02125 6.00125 1 7 C0.34 6.67 -0.32 6.34 -1 6 C-0.67 5.01 -0.34 4.02 0 3 C-0.65226562 3.144375 -1.30453125 3.28875 -1.9765625 3.4375 C-6.72620177 4.44627294 -11.11409188 5.25715306 -16 5 C-5.34285714 -2.1047619 -5.34285714 -2.1047619 0 0 Z " fill="#A7DEEE" transform="translate(53,9)"/>
<path d="M0 0 C2.64 0 5.28 0 8 0 C7.125 6.75 7.125 6.75 6 9 C3.4375 9.625 3.4375 9.625 1 10 C1.33 8.02 1.66 6.04 2 4 C2.66 4 3.32 4 4 4 C4 3.34 4 2.68 4 2 C2.68 2 1.36 2 0 2 C0 1.34 0 0.68 0 0 Z " fill="#7FC4EC" transform="translate(34,53)"/>
<path d="M0 0 C-0.0625 1.8125 -0.0625 1.8125 -1 4 C-4.96873594 6.09669068 -7.48438726 7 -12 7 C-9.87654283 1.40179474 -5.8147806 -0.49840977 0 0 Z " fill="#11647B" transform="translate(59,43)"/>
<path d="M0 0 C0.33 0 0.66 0 1 0 C1.33 1.65 1.66 3.3 2 5 C2.33 5 2.66 5 3 5 C3 7.64 3 10.28 3 13 C2.34 13 1.68 13 1 13 C0.67 12.34 0.34 11.68 0 11 C-0.66 11 -1.32 11 -2 11 C-2.33 8.03 -2.66 5.06 -3 2 C-2.34 2 -1.68 2 -1 2 C-0.67 1.34 -0.34 0.68 0 0 Z " fill="#6FA2DB" transform="translate(17,34)"/>
<path d="M0 0 C0.33 0 0.66 0 1 0 C1.33 2.64 1.66 5.28 2 8 C3.65 7.67 5.3 7.34 7 7 C7 7.99 7 8.98 7 10 C4 12 4 12 1 12 C0.34 12.66 -0.32 13.32 -1 14 C-1.33 13.67 -1.66 13.34 -2 13 C-1.56054925 8.60549251 -0.94427775 4.31669828 0 0 Z " fill="#55B2E6" transform="translate(21,71)"/>
<path d="M0 0 C0.33 0.66 0.66 1.32 1 2 C2.65 2 4.3 2 6 2 C6 1.34 6 0.68 6 0 C7.65 0.33 9.3 0.66 11 1 C10.34 2.65 9.68 4.3 9 6 C8.01 5.67 7.02 5.34 6 5 C6 4.34 6 3.68 6 3 C3.13275314 3.57344937 2.1385485 3.8614515 0 6 C-2.625 5.625 -2.625 5.625 -5 5 C-2 3 -2 3 0 3 C0 2.01 0 1.02 0 0 Z M-4 6 C-2 7 -2 7 -2 7 Z " fill="#7FD4F1" transform="translate(65,34)"/>
<path d="M0 0 C0.33 0.66 0.66 1.32 1 2 C0.67 2.66 0.34 3.32 0 4 C1.98 3.67 3.96 3.34 6 3 C4.6875 5.9375 4.6875 5.9375 3 9 C-0.62326739 10.2077558 -1.64146369 9.54311128 -5 8 C-3.38731308 5.28775382 -1.75098126 2.62647188 0 0 Z " fill="#6CC0E5" transform="translate(41,41)"/>
<path d="M0 0 C1.36884358 4.51718381 0.47075246 7.58774263 -1 12 C-2.65 12 -4.3 12 -6 12 C-5.360625 11.46375 -4.72125 10.9275 -4.0625 10.375 C-1.61470596 7.55632807 -1.33285388 5.66139268 -1 2 C-2.0725 2.350625 -3.145 2.70125 -4.25 3.0625 C-8.92307692 4.23076923 -8.92307692 4.23076923 -12 3 C-4.71428571 -0.42857143 -4.71428571 -0.42857143 0 0 Z " fill="#61EBCF" transform="translate(72,24)"/>
<path d="M0 0 C-5.58368652 3.72245768 -12.28406188 5.53020564 -19 5 C-18 3 -18 3 -14.98046875 1.89453125 C-13.10294922 1.35892578 -13.10294922 1.35892578 -11.1875 0.8125 C-9.32158203 0.26529297 -9.32158203 0.26529297 -7.41796875 -0.29296875 C-4.33098114 -0.93153419 -2.86705078 -1.13382109 0 0 Z " fill="#6CD6D5" transform="translate(53,30)"/>
<path d="M0 0 C-0.33 0.99 -0.66 1.98 -1 3 C-2.65 3.33 -4.3 3.66 -6 4 C-6 4.66 -6 5.32 -6 6 C-6.66 6 -7.32 6 -8 6 C-8 5.34 -8 4.68 -8 4 C-8.99 4 -9.98 4 -11 4 C-10.67 2.68 -10.34 1.36 -10 0 C-3.375 -1.125 -3.375 -1.125 0 0 Z " fill="#54B4F1" transform="translate(59,70)"/>
<path d="M0 0 C1.47008223 2.94016445 0.76569893 5.1482236 0.3125 8.375 C0.16425781 9.51710938 0.01601562 10.65921875 -0.13671875 11.8359375 C-1.09365444 15.34325834 -2.23495106 16.71362552 -5 19 C-4.67544172 16.99855726 -4.33882656 14.99907671 -4 13 C-3.78150391 11.62521484 -3.78150391 11.62521484 -3.55859375 10.22265625 C-3.39488281 9.24167969 -3.23117188 8.26070312 -3.0625 7.25 C-2.90910156 6.30640625 -2.75570312 5.3628125 -2.59765625 4.390625 C-2 2 -2 2 0 0 Z " fill="#87D8F6" transform="translate(69,54)"/>
<path d="M0 0 C0 0.66 0 1.32 0 2 C-3.37097383 3.49821059 -5.20442119 4 -9 4 C-9 4.66 -9 5.32 -9 6 C-10.32 6 -11.64 6 -13 6 C-13.33 6.99 -13.66 7.98 -14 9 C-14.66 8.67 -15.32 8.34 -16 8 C-13.29583448 4.11276206 -11.55666623 1.79973544 -6.875 0.625 C-3 0 -3 0 0 0 Z " fill="#3F9DE0" transform="translate(48,78)"/>
<path d="M0 0 C2.01822917 0.06510417 4.03645833 0.13020833 6.0546875 0.1953125 C7.1796875 5.8203125 7.1796875 5.8203125 6.0546875 9.1953125 C7.3746875 9.5253125 8.6946875 9.8553125 10.0546875 10.1953125 C7.7446875 10.5253125 5.4346875 10.8553125 3.0546875 11.1953125 C3.3846875 8.2253125 3.7146875 5.2553125 4.0546875 2.1953125 C1.4146875 2.1953125 -1.2253125 2.1953125 -3.9453125 2.1953125 C-1.9453125 0.1953125 -1.9453125 0.1953125 0 0 Z " fill="#D1FEFA" transform="translate(67.9453125,22.8046875)"/>
<path d="M0 0 C0.33 0.99 0.66 1.98 1 3 C-2.61973402 4.31626692 -5.09567131 5 -9 5 C-9 5.66 -9 6.32 -9 7 C-10.98 7.33 -12.96 7.66 -15 8 C-15 7.34 -15 6.68 -15 6 C-10.05 4.02 -5.1 2.04 0 0 Z " fill="#AAE0F6" transform="translate(47,18)"/>
<path d="M0 0 C0.93423645 3.01031744 1.04449911 3.86650268 0 7 C-3 9 -3 9 -5.1875 8.625 C-5.785625 8.41875 -6.38375 8.2125 -7 8 C-4.53846154 3.2 -4.53846154 3.2 -1.8125 2.1875 C-0.9153125 2.0946875 -0.9153125 2.0946875 0 2 C0 1.34 0 0.68 0 0 Z " fill="#148384" transform="translate(33,43)"/>
<path d="M0 0 C0.33 0 0.66 0 1 0 C0.93976506 2.08412907 0.85091679 4.16744435 0.75 6.25 C0.70359375 7.41015625 0.6571875 8.5703125 0.609375 9.765625 C-0.08791275 13.46661382 -1.11785184 14.67122429 -4 17 C-4.33 16.34 -4.66 15.68 -5 15 C-4.67 14.01 -4.34 13.02 -4 12 C-3.34 12 -2.68 12 -2 12 C-1.93941406 11.21753906 -1.87882812 10.43507813 -1.81640625 9.62890625 C-1.73261719 8.61699219 -1.64882813 7.60507812 -1.5625 6.5625 C-1.48128906 5.55316406 -1.40007813 4.54382812 -1.31640625 3.50390625 C-1 1 -1 1 0 0 Z " fill="#48A3B9" transform="translate(25,42)"/>
<path d="M0 0 C0.33 0.66 0.66 1.32 1 2 C2.65 2 4.3 2 6 2 C3.73030256 4.26969744 2.02604513 4.99131829 -1 6 C-2.32 6 -3.64 6 -5 6 C-4.1875 3.5625 -4.1875 3.5625 -3 1 C-2.01 0.67 -1.02 0.34 0 0 Z " fill="#A2DFF1" transform="translate(46,39)"/>
<path d="M0 0 C0.598125 0.20625 1.19625 0.4125 1.8125 0.625 C0.4925 0.955 -0.8275 1.285 -2.1875 1.625 C-2.8475 5.585 -3.5075 9.545 -4.1875 13.625 C-4.5175 13.625 -4.8475 13.625 -5.1875 13.625 C-5.26832094 11.66733719 -5.32660778 9.70873272 -5.375 7.75 C-5.40980469 6.65945312 -5.44460937 5.56890625 -5.48046875 4.4453125 C-5.38378906 3.51460937 -5.28710938 2.58390625 -5.1875 1.625 C-2.1875 -0.375 -2.1875 -0.375 0 0 Z " fill="#86B9E5" transform="translate(25.1875,38.375)"/>
<path d="M0 0 C-5.27172634 2.46252976 -10.37660575 4.50807908 -16 6 C-16.99 6.495 -16.99 6.495 -18 7 C-17.375 5.125 -17.375 5.125 -16 3 C-13.3125 1.875 -13.3125 1.875 -10 1 C-8.1746875 0.4121875 -8.1746875 0.4121875 -6.3125 -0.1875 C-3 -1 -3 -1 0 0 Z " fill="#D8EEFA" transform="translate(39,29)"/>
<path d="M0 0 C-3.43535849 3.17175425 -6.15330091 3.45766505 -10.75 3.6875 C-11.92046875 3.75324219 -13.0909375 3.81898437 -14.296875 3.88671875 C-15.18890625 3.92410156 -16.0809375 3.96148438 -17 4 C-11.21128901 0.14085934 -6.80327576 -0.26679513 0 0 Z " fill="#A9F1EC" transform="translate(62,26)"/>
<path d="M0 0 C0.33 0 0.66 0 1 0 C1.33 3.3 1.66 6.6 2 10 C1.34 9.01 0.68 8.02 0 7 C-0.66 8.32 -1.32 9.64 -2 11 C-2.33 11 -2.66 11 -3 11 C-3 8.36 -3 5.72 -3 3 C-2.34 3 -1.68 3 -1 3 C-0.67 2.01 -0.34 1.02 0 0 Z " fill="#195EB4" transform="translate(13,32)"/>
<path d="M0 0 C-1.90607285 1.06092734 -3.82532746 2.09820101 -5.75 3.125 C-6.81734375 3.70507812 -7.8846875 4.28515625 -8.984375 4.8828125 C-12 6 -12 6 -14.390625 5.1796875 C-15.18726563 4.59574219 -15.18726563 4.59574219 -16 4 C-14.08959948 3.1319092 -12.17139263 2.28098217 -10.25 1.4375 C-9.18265625 0.96183594 -8.1153125 0.48617187 -7.015625 -0.00390625 C-4.01630163 -0.9946154 -2.86578759 -1.16161779 0 0 Z " fill="#27D6AD" transform="translate(54,33)"/>
<path d="M0 0 C0.33 0.99 0.66 1.98 1 3 C1.66 3.33 2.32 3.66 3 4 C2.360625 4.103125 1.72125 4.20625 1.0625 4.3125 C0.381875 4.539375 -0.29875 4.76625 -1 5 C-1.33 5.99 -1.66 6.98 -2 8 C-3.98 8.33 -5.96 8.66 -8 9 C-7.34 8.67 -6.68 8.34 -6 8 C-6 7.01 -6 6.02 -6 5 C-4.02 4.34 -2.04 3.68 0 3 C0 2.01 0 1.02 0 0 Z " fill="#BFEEF8" transform="translate(54,13)"/>
<path d="M0 0 C1.98 0.66 3.96 1.32 6 2 C5.34 4.31 4.68 6.62 4 9 C3.34 7.68 2.68 6.36 2 5 C1.01 5 0.02 5 -1 5 C-0.67 3.35 -0.34 1.7 0 0 Z " fill="#90BEEB" transform="translate(15,31)"/>
<path d="M0 0 C-3.12621626 3.39417765 -5.56541027 5.6062718 -10 7 C-10 5.35 -10 3.7 -10 2 C-6.49223216 0.39644899 -3.85645121 -0.22036864 0 0 Z " fill="#B3D5ED" transform="translate(30,33)"/>
<path d="M0 0 C0.99 0.33 1.98 0.66 3 1 C2.67 2.98 2.34 4.96 2 7 C0.35 7 -1.3 7 -3 7 C-3.33 6.01 -3.66 5.02 -4 4 C-3.34 3.525625 -2.68 3.05125 -2 2.5625 C-1.34 2.046875 -0.68 1.53125 0 1 C0 0.67 0 0.34 0 0 Z " fill="#F6F9FC" transform="translate(58,16)"/>
<path d="M0 0 C0.66 0 1.32 0 2 0 C3.42857143 8.57142857 3.42857143 8.57142857 1 12 C0 11 0 11 -0.09765625 8.49609375 C-0.08605469 7.48675781 -0.07445313 6.47742188 -0.0625 5.4375 C-0.05347656 4.42558594 -0.04445313 3.41367188 -0.03515625 2.37109375 C-0.02355469 1.58863281 -0.01195313 0.80617187 0 0 Z " fill="#117177" transform="translate(19,63)"/>
<path d="M0 0 C-1.0197307 3.77300358 -1.65872662 4.80206144 -5.125 6.8125 C-6.07375 7.204375 -7.0225 7.59625 -8 8 C-8 6.35 -8 4.7 -8 3 C-2.25 0 -2.25 0 0 0 Z " fill="#2AC9AE" transform="translate(34,39)"/>
<path d="M0 0 C0 0.66 0 1.32 0 2 C0.66 2.33 1.32 2.66 2 3 C-1.21451269 4.60725635 -4.43612536 4.05748185 -8 4 C-8 3.01 -8 2.02 -8 1 C-5.23735711 0.40267181 -2.83967231 0 0 0 Z " fill="#2AA3D2" transform="translate(47,15)"/>
<path d="M0 0 C0 0.99 0 1.98 0 3 C-2.64 3.33 -5.28 3.66 -8 4 C-8 3.01 -8 2.02 -8 1 C-4.93251126 -0.86240388 -3.40254489 -1.2151946 0 0 Z " fill="#BCF5F5" transform="translate(65,34)"/>
<path d="M0 0 C0.33 0 0.66 0 1 0 C1.33 4.62 1.66 9.24 2 14 C1.01 14.495 1.01 14.495 0 15 C-1.33257403 4.44191344 -1.33257403 4.44191344 0 0 Z " fill="#053B8F" transform="translate(15,51)"/>
<path d="M0 0 C0.66 0.33 1.32 0.66 2 1 C2 4 2 7 2 10 C1.34 10 0.68 10 0 10 C-0.19412181 8.52168779 -0.38012131 7.04230684 -0.5625 5.5625 C-0.66691406 4.73878906 -0.77132813 3.91507813 -0.87890625 3.06640625 C-0.91886719 2.38449219 -0.95882813 1.70257813 -1 1 C-0.67 0.67 -0.34 0.34 0 0 Z " fill="#457EBF" transform="translate(17,51)"/>
<path d="M0 0 C4.75 0.75 4.75 0.75 7 3 C6 4 6 4 2.4375 4.0625 C1.303125 4.041875 0.16875 4.02125 -1 4 C-0.67 2.68 -0.34 1.36 0 0 Z " fill="#439EDB" transform="translate(24,85)"/>
<path d="M0 0 C2.31 0 4.62 0 7 0 C4.0567344 1.96217707 1.24021262 3.58240698 -2 5 C-2.99 4.67 -3.98 4.34 -5 4 C-4.67 3.34 -4.34 2.68 -4 2 C-2.68 2 -1.36 2 0 2 C0 1.34 0 0.68 0 0 Z " fill="#8DBEDD" transform="translate(39,82)"/>
<path d="M0 0 C0 0.66 0 1.32 0 2 C0.66 2 1.32 2 2 2 C1.67 2.99 1.34 3.98 1 5 C-0.98 5.33 -2.96 5.66 -5 6 C-4.34 5.67 -3.68 5.34 -3 5 C-3 4.01 -3 3.02 -3 2 C-3.66 1.67 -4.32 1.34 -5 1 C-2 0 -2 0 0 0 Z " fill="#3394C3" transform="translate(26,22)"/>
<path d="M0 0 C-3.79692186 2.82561627 -6.18569279 4.56638908 -11 4 C-10.34 3.34 -9.68 2.68 -9 2 C-8.01 2 -7.02 2 -6 2 C-6 1.34 -6 0.68 -6 0 C-3.50907189 -1.24546405 -2.58919267 -0.7767578 0 0 Z " fill="#6FACD5" transform="translate(54,78)"/>
<path d="M0 0 C2 4 2 4 2.5 6.1875 C2.665 6.785625 2.83 7.38375 3 8 C3.66 8.33 4.32 8.66 5 9 C4.01 9.33 3.02 9.66 2 10 C1.67 11.32 1.34 12.64 1 14 C0.67 9.38 0.34 4.76 0 0 Z " fill="#6D99C5" transform="translate(11,58)"/>
<path d="M0 0 C1.32 0 2.64 0 4 0 C3.25 6.75 3.25 6.75 1 9 C0 6 0 6 0.9375 3.8125 C1.4634375 2.9153125 1.4634375 2.9153125 2 2 C1.01 1.67 0.02 1.34 -1 1 C-0.67 0.67 -0.34 0.34 0 0 Z " fill="#94E4EE" transform="translate(74,33)"/>
<path d="M0 0 C0.99 1.32 1.98 2.64 3 4 C-0.34632847 5.11544282 -1.63913839 4.67217232 -5 4 C-5.99 4.33 -6.98 4.66 -8 5 C-8 4.34 -8 3.68 -8 3 C-5.36 2.01 -2.72 1.02 0 0 Z " fill="#45DFB8" transform="translate(66,30)"/>
<path d="M0 0 C2.97 0 5.94 0 9 0 C6.01353231 1.99097846 3.40312738 2.94124926 0 4 C-0.33 3.34 -0.66 2.68 -1 2 C-0.67 1.34 -0.34 0.68 0 0 Z " fill="#7CB4DD" transform="translate(21,89)"/>
<path d="M0 0 C1.32 0 2.64 0 4 0 C2.52307692 4.67692308 2.52307692 4.67692308 -0.125 6.3125 C-1.053125 6.6528125 -1.053125 6.6528125 -2 7 C-1.34 4.69 -0.68 2.38 0 0 Z " fill="#588AAF" transform="translate(34,55)"/>
<path d="M0 0 C-0.33 0.66 -0.66 1.32 -1 2 C-3.06640625 2.4140625 -3.06640625 2.4140625 -5.5625 2.625 C-6.38878906 2.69976563 -7.21507812 2.77453125 -8.06640625 2.8515625 C-9.02353516 2.92503906 -9.02353516 2.92503906 -10 3 C-4.37755102 -1.45918367 -4.37755102 -1.45918367 0 0 Z " fill="#B2D7E1" transform="translate(37,15)"/>
<path d="M0 0 C0.99 0 1.98 0 3 0 C2.67 2.31 2.34 4.62 2 7 C1.01 6.67 0.02 6.34 -1 6 C-1.042721 4.33388095 -1.04063832 2.66617115 -1 1 C-0.67 0.67 -0.34 0.34 0 0 Z " fill="#0E5E7F" transform="translate(17,76)"/>
<path d="M0 0 C2.0625 0.4375 2.0625 0.4375 4 1 C4.33 2.32 4.66 3.64 5 5 C3.68 5.33 2.36 5.66 1 6 C0.34 4.35 -0.32 2.7 -1 1 C-0.67 0.67 -0.34 0.34 0 0 Z " fill="#5CAFEB" transform="translate(29,83)"/>
<path d="M0 0 C0.33 0.66 0.66 1.32 1 2 C1.66 2.33 2.32 2.66 3 3 C1.71034824 4.37562854 0.37310707 5.70766393 -1 7 C-1.66 7 -2.32 7 -3 7 C-2.625 4.0625 -2.625 4.0625 -2 1 C-1.34 0.67 -0.68 0.34 0 0 Z " fill="#9CD4F8" transform="translate(32,56)"/>
<path d="M0 0 C-1.75 2.0625 -1.75 2.0625 -4 4 C-6.25 3.75 -6.25 3.75 -8 3 C-5.53387212 -0.1151089 -3.89156016 -0.31553191 0 0 Z " fill="#59B9F4" transform="translate(40,74)"/>
<path d="M0 0 C0.33 0 0.66 0 1 0 C0.6875 3.375 0.6875 3.375 0 7 C-0.99 7.66 -1.98 8.32 -3 9 C-2.67 7.02 -2.34 5.04 -2 3 C-1.34 3 -0.68 3 0 3 C0 2.01 0 1.02 0 0 Z " fill="#AAE3F0" transform="translate(67,64)"/>
<path d="M0 0 C0 2.31 0 4.62 0 7 C-0.99 7.495 -0.99 7.495 -2 8 C-2.33 5.69 -2.66 3.38 -3 1 C-1 0 -1 0 0 0 Z " fill="#538ECD" transform="translate(18,44)"/>
<path d="M0 0 C-5.75 4 -5.75 4 -8 4 C-7.1875 2.0625 -7.1875 2.0625 -6 0 C-3 -1 -3 -1 0 0 Z " fill="#C4E9FB" transform="translate(33,34)"/>
<path d="M0 0 C0.99 0.495 0.99 0.495 2 1 C2 1.66 2 2.32 2 3 C2.99 3 3.98 3 5 3 C4.67 3.99 4.34 4.98 4 6 C2.68 5.67 1.36 5.34 0 5 C0 3.35 0 1.7 0 0 Z " fill="#48A5EE" transform="translate(18,83)"/>
<path d="M0 0 C-0.99 2.31 -1.98 4.62 -3 7 C-4.125 3.25 -4.125 3.25 -3 1 C-3.99 0.67 -4.98 0.34 -6 0 C-3.50907189 -1.24546405 -2.58919267 -0.7767578 0 0 Z " fill="#1E8789" transform="translate(42,40)"/>
</svg>
